# xmcd
#
# Track frame offsets:
#	150
#	15408
#	34555
#	67886
#	86156
#	97269
#
# Disc length: 1501 seconds
#
# Revision: 1
# Processed by: cddbd v1.5.2PL0 Copyright (c) Steve Scherf et al.
# Submitted via: audiograbber 1.83.01
#
DISCID=4105db06
DTITLE=Sneaky Weasel Gang - Bodyslide Blues
DYEAR=2010
DGENRE=
TTITLE0=Visionary
TTITLE1=Houndog Blues
TTITLE2=Slow Soul
TTITLE3=Cowbell Jam
TTITLE4=Woman Across the River
TTITLE5=Free
EXTD=Australian Artist
EXTT0=
EXTT1=
EXTT2=
EXTT3=
EXTT4=
EXTT5=
PLAYORDER=
